{"title":"The Crimson Field S01E05 Xvid RB58.avi","uid":10094631,"size":501770732,"categoryP":"video","categoryS":"tv_shows","magnet":"?xt=urn:btih:1e0b09414bcbc480a170d7d8bfa74505d86358b3&amp;dn=The+Crimson+Field+S01E05+Xvid+RB58.avi&amp;tr=udp%3A%2F%2Ftracker.openbittorrent.com%3A80&amp;tr=udp%3A%2F%2Fopen.demonii.com%3A1337&amp;tr=udp%3A%2F%2Ftracker.coppersurfer.tk%3A6969&amp;tr=udp%3A%2F%2Fexodus.desync.com%3A6969","seeders":2,"leechers":0,"uploader":"RedBaron58","files":1,"time":1399260422,"description":"The Crimson Field S01 E05 Xvid\n  &lt;a href=&quot;\nhttp://www.imdb.com/title/tt3494220/&quot; rel=&quot;nofollow&quot; target=&quot;_NEW&quot;&gt;\nhttp://www.imdb.com/title/tt3494220/&lt;/a&gt;\n\n\nThank you for your kind comments and thumbs ups on my other torrents, your feedback is welcome.\n\n\nAbout the Episode:\nGrace is threatened by Major Ballard, the aggressively rude and war-scarred commander of a Sikh \nregiment who would rather be with his men than at rest on the wards. \nShe eventually manages to calm him with her knowledge of India but as she tries to discover what \nhas made him so angry, the arrival of another young soldier sets him off again.\n\n\nI hope you enjoy.\n\n\nTechnical:\n\nGeneral\nComplete name                            : G:The Crimson Field S01E05 Xvid RB58.avi\nFormat                                   : AVI\nFormat/Info                              : Audio Video Interleave\nFile size                                : 479 MiB\nDuration                                 : 58mn 6s\nOverall bit rate                         : 1 151 Kbps\n\nVideo\nID                                       : 0\nFormat                                   : MPEG-4 Visual\nFormat profile                           : Advanced Simple@L4\nFormat settings, BVOP                    : 2\nFormat settings, QPel                    : No\nFormat settings, GMC                     : No warppoints\nFormat settings, Matrix                  : Default (H.263)\nCodec ID                                 : DIVX\nCodec ID/Info                            : Project Mayo\nCodec ID/Hint                            : DivX 4\nDuration                                 : 58mn 6s\nBit rate                                 : 1 010 Kbps\nWidth                                    : 704 pixels\nHeight                                   : 396 pixels\nDisplay aspect ratio                     : 16:9\nFrame rate                               : 25.000 fps\nColor space                              : YUV\nChroma subsampling                       : 4:2:0\nBit depth                                : 8 bits\nScan type                                : Progressive\nCompression mode                         : Lossy\nBits/(Pixel*Frame)                       : 0.145\nStream size                              : 420 MiB (88%)\nWriting library                          : XviD 64\n\nAudio\nID                                       : 1\nFormat                                   : MPEG Audio\nFormat version                           : Version 1\nFormat profile                           : Layer 3\nCodec ID                                 : 55\nCodec ID/Hint                            : MP3\nDuration                                 : 58mn 6s\nBit rate mode                            : Constant\nBit rate                                 : 128 Kbps\nChannel(s)                               : 2 channels\nSampling rate                            : 48.0 KHz\nCompression mode                         : Lossy\nStream size                              : 53.2 MiB (11%)\nAlignment                                : Aligned on interleaves\nInterleave, duration                     : 24 ms (0.60 video frame)","torrent":{"xt":"urn:btih:1e0b09414bcbc480a170d7d8bfa74505d86358b3","amp;dn":"The+Crimson+Field+S01E05+Xvid+RB58.avi","amp;tr":["udp%3A%2F%2Ftracker.openbittorrent.com%3A80","udp%3A%2F%2Fopen.demonii.com%3A1337","udp%3A%2F%2Ftracker.coppersurfer.tk%3A6969","udp%3A%2F%2Fexodus.desync.com%3A6969"],"infoHash":"1e0b09414bcbc480a170d7d8bfa74505d86358b3","infoHashBuffer":{"type":"Buffer","data":[30,11,9,65,75,203,196,128,161,112,215,216,191,167,69,5,216,99,88,179]},"announce":[],"urlList":[]}}